<svg xmlns="http://www.w3.org/2000/svg" viewBox="0 0 350 280" fill="none">
  <rect x="40" y="45" width="270" height="195" rx="12" fill="rgba(99,102,242,0.06)" stroke="rgba(99,102,242,0.15)" stroke-width="1"/>
  <text x="60" y="70" fill="#64748b" font-size="10" font-weight="600" font-family="system-ui" opacity="0.85">Month-over-Month Comparison</text>
  <rect x="280" y="60" width="10" height="10" rx="3" fill="rgba(99,102,242,0.15)" stroke="#6366f1" stroke-width="1"/>
  <text x="60" y="100" fill="#64748b" font-size="9" font-family="system-ui" opacity="0.7">Jun</text>
  <rect x="75" y="70" width="30" height="80" rx="4" fill="#6366f1" opacity="0.65"/>
  <rect x="115" y="90" width="30" height="60" rx="4" fill="#6366f1" opacity="0.45"/>
  <rect x="155" y="60" width="30" height="90" rx="4" fill="#6366f1" opacity="0.55"/>
  <rect x="195" y="75" width="30" height="75" rx="4" fill="#6366f1" opacity="0.5"/>
  <rect x="235" y="85" width="30" height="65" rx="4" fill="#6366f1" opacity="0.4"/>
  <line x1="60" y1="155" x2="270" y2="155" stroke="rgba(100,116,139,0.2)" stroke-width="1"/>
  <text x="60" y="180" fill="#64748b" font-size="9" font-family="system-ui" opacity="0.7">Jul</text>
  <rect x="75" y="140" width="30" height="55" rx="4" fill="#0f766e" opacity="0.55"/>
  <rect x="115" y="120" width="30" height="75" rx="4" fill="#0f766e" opacity="0.65"/>
  <rect x="155" y="105" width="30" height="90" rx="4" fill="#0f766e" opacity="0.7"/>
  <rect x="195" y="115" width="30" height="80" rx="4" fill="#0f766e" opacity="0.6"/>
  <rect x="235" y="125" width="30" height="70" rx="4" fill="#0f766e" opacity="0.5"/>
  <rect x="60" y="55" width="60" height="16" rx="4" fill="rgba(13,148,136,0.12)"/>
  <text x="90" y="66" text-anchor="middle" fill="#0f766e" font-size="8" font-weight="600" font-family="system-ui">+18% vs last month</text>
  <line x1="60" y1="110" x2="270" y2="110" stroke="rgba(100,116,139,0.08)" stroke-width="1" stroke-dasharray="3 3"/>
  <line x1="60" y1="130" x2="270" y2="130" stroke="rgba(100,116,139,0.08)" stroke-width="1" stroke-dasharray="3 3"/>
</svg>
