<svg xmlns="http://www.w3.org/2000/svg" viewBox="0 0 350 280" fill="none">
  <rect width="350" height="280" rx="24" fill="#04080f"/>
  <rect x="50" y="35" width="250" height="210" rx="10" fill="rgba(15,118,110,0.06)" stroke="rgba(13,148,136,0.15)" stroke-width="1"/>
  <text x="70" y="62" fill="rgba(203,213,225,0.6)" font-size="10" font-weight="600" font-family="system-ui">Monthly Expense Report</text>
  <text x="280" y="62" text-anchor="end" fill="rgba(203,213,225,0.4)" font-size="9" font-family="system-ui">Jun 2024</text>
  <line x1="70" y1="75" x2="280" y2="75" stroke="rgba(203,213,225,0.08)" stroke-width="1"/>
  <rect x="70" y="88" width="90" height="16" rx="4" fill="rgba(203,213,225,0.06)"/>
  <text x="75" y="99" fill="rgba(203,213,225,0.4)" font-size="8" font-family="system-ui">Category</text>
  <rect x="165" y="88" width="50" height="16" rx="4" fill="rgba(203,213,225,0.06)"/>
  <text x="170" y="99" fill="rgba(203,213,225,0.4)" font-size="8" font-family="system-ui">Amount</text>
  <rect x="220" y="88" width="55" height="16" rx="4" fill="rgba(203,213,225,0.06)"/>
  <text x="225" y="99" fill="rgba(203,213,225,0.4)" font-size="8" font-family="system-ui">Change</text>
  <rect x="70" y="110" width="6" height="6" rx="2" fill="#ef4444" opacity="0.6"/>
  <text x="82" y="116" fill="rgba(203,213,225,0.6)" font-size="9" font-family="system-ui">Groceries</text>
  <text x="190" y="116" text-anchor="end" fill="rgba(203,213,225,0.6)" font-size="9" font-family="system-ui">&#8358;45k</text>
  <rect x="221" y="111" width="50" height="4" rx="2" fill="#ef4444" opacity="0.6"/>
  <rect x="70" y="126" width="6" height="6" rx="2" fill="#f59e0b" opacity="0.6"/>
  <text x="82" y="132" fill="rgba(203,213,225,0.6)" font-size="9" font-family="system-ui">Transport</text>
  <text x="190" y="132" text-anchor="end" fill="rgba(203,213,225,0.6)" font-size="9" font-family="system-ui">&#8358;12k</text>
  <rect x="221" y="127" width="30" height="4" rx="2" fill="#f59e0b" opacity="0.6"/>
  <rect x="70" y="142" width="6" height="6" rx="2" fill="#3b82f6" opacity="0.6"/>
  <text x="82" y="148" fill="rgba(203,213,225,0.6)" font-size="9" font-family="system-ui">Utilities</text>
  <text x="190" y="148" text-anchor="end" fill="rgba(203,213,225,0.6)" font-size="9" font-family="system-ui">&#8358;8k</text>
  <rect x="221" y="143" width="20" height="4" rx="2" fill="#3b82f6" opacity="0.6"/>
  <rect x="70" y="158" width="6" height="6" rx="2" fill="#10b981" opacity="0.6"/>
  <text x="82" y="164" fill="rgba(203,213,225,0.6)" font-size="9" font-family="system-ui">Shopping</text>
  <text x="190" y="164" text-anchor="end" fill="rgba(203,213,225,0.6)" font-size="9" font-family="system-ui">&#8358;22k</text>
  <rect x="221" y="159" width="40" height="4" rx="2" fill="#10b981" opacity="0.6"/>
  <line x1="70" y1="172" x2="280" y2="172" stroke="rgba(203,213,225,0.08)" stroke-width="1" stroke-dasharray="3 3"/>
  <text x="70" y="190" fill="rgba(203,213,225,0.5)" font-size="10" font-family="system-ui">Total Expenses</text>
  <text x="280" y="190" text-anchor="end" fill="#f8fafc" font-size="13" font-weight="bold" font-family="system-ui">&#8358;87,450</text>
  <rect x="70" y="205" width="80" height="24" rx="6" fill="#6366f1" opacity="0.2" stroke="#6366f1" stroke-width="1"/>
  <text x="110" y="220" text-anchor="middle" fill="#6366f1" font-size="9" font-weight="600" font-family="system-ui">Export CSV</text>
  <rect x="160" y="205" width="80" height="24" rx="6" fill="rgba(13,148,136,0.15)" stroke="rgba(13,148,136,0.3)" stroke-width="1"/>
  <text x="200" y="220" text-anchor="middle" fill="rgba(13,148,136,0.8)" font-size="9" font-weight="600" font-family="system-ui">Export PDF</text>
</svg>
